<svg height="16" viewBox="0 0 16 16" width="16" xmlns="http://www.w3.org/2000/svg"><g fill="#2e3436"><path d="m1 9c-.550781 0-1 .449219-1 1v6h6c.550781 0 1-.449219 1-1s-.449219-1-1-1h-2.585938l3.292969-3.292969c.390625-.390625.390625-1.023437 0-1.414062-.1875-.1875-.441406-.292969-.707031-.292969s-.519531.105469-.707031.292969l-3.292969 3.292969v-2.585938c0-.550781-.449219-1-1-1zm0 0"/><path d="m15 7c.550781 0 1-.449219 1-1v-6h-6c-.550781 0-1 .449219-1 1s.449219 1 1 1h2.585938l-3.292969 3.292969c-.390625.390625-.390625 1.023437 0 1.414062.1875.1875.441406.292969.707031.292969s.519531-.105469.707031-.292969l3.292969-3.292969v2.585938c0 .550781.449219 1 1 1zm0 0"/></g></svg>